<?xml version="1.0" standalone="no"?>
<!DOCTYPE svg PUBLIC "-//W3C//DTD SVG 20010904//EN"
 "http://www.w3.org/TR/2001/REC-SVG-20010904/DTD/svg10.dtd">
<svg version="1.0" xmlns="http://www.w3.org/2000/svg"
 width="700.000000pt" height="700.000000pt" viewBox="0 0 700.000000 700.000000"
 preserveAspectRatio="xMidYMid meet">
<metadata>
Created by potrace 1.14, written by Peter Selinger 2001-2017
</metadata>
<g transform="translate(0.000000,700.000000) scale(0.100000,-0.100000)"
fill="#000000" stroke="none">
<path d="M4217 5744 c-1 -1 -40 -5 -87 -8 -47 -3 -94 -8 -105 -10 -11 -2 -46
-7 -79 -11 -63 -7 -71 -9 -161 -24 -61 -11 -90 -17 -135 -26 -14 -2 -38 -7
-55 -10 -68 -11 -96 -18 -228 -51 -346 -87 -1068 -325 -1188 -392 -180 -100
-235 -122 -307 -123 -72 -1 -120 26 -229 131 -72 68 -114 99 -218 156 -146 80
-262 134 -368 170 -84 29 -275 80 -331 88 -21 4 -41 8 -45 10 -4 3 -34 7 -66
11 -33 3 -67 8 -75 11 -30 8 -346 19 -437 15 -38 -1 -65 -25 -56 -49 3 -9 25
-37 47 -62 23 -25 56 -68 74 -97 38 -58 100 -200 113 -253 4 -19 15 -62 23
-95 30 -118 41 -221 40 -380 0 -189 -12 -228 -156 -511 -75 -149 -131 -287
-142 -355 -3 -19 -10 -61 -16 -94 -18 -108 -24 -197 -24 -360 0 -237 21 -406
70 -595 76 -287 173 -467 426 -792 38 -47 68 -88 68 -91 0 -3 -74 -155 -164
-338 -139 -281 -162 -336 -151 -348 16 -17 30 -7 200 134 116 96 153 128 219
188 55 51 113 97 121 97 4 0 18 -11 30 -24 32 -34 176 -142 290 -218 220 -145
376 -219 609 -289 107 -33 268 -74 326 -84 19 -3 42 -8 50 -10 14 -3 63 -11
150 -22 70 -9 406 -11 460 -3 30 5 73 11 95 14 33 4 123 21 221 41 87 19 326
112 469 183 337 169 668 422 851 648 21 27 47 58 57 69 38 42 168 244 216 335
66 126 97 211 105 290 11 107 34 128 183 167 186 50 408 211 577 420 154 190
236 432 262 771 6 81 4 95 -11 112 -38 42 -88 19 -123 -56 -56 -118 -67 -131
-177 -209 -81 -57 -177 -109 -256 -139 -70 -26 -274 -72 -361 -81 -171 -18
-215 -49 -259 -183 -25 -79 -39 -97 -68 -87 -27 8 -54 49 -75 112 -36 108 -93
131 -267 108 -108 -14 -460 -14 -536 0 -68 13 -183 61 -211 89 -10 10 13 44
120 178 120 149 161 199 250 302 15 17 25 32 23 34 -1 2 -16 5 -31 7 -16 2
-90 13 -164 25 -74 12 -144 23 -155 25 -15 2 -184 40 -260 59 -111 26 -184 51
-173 57 22 12 577 133 758 165 59 11 136 26 150 30 16 4 36 40 113 204 164
349 250 637 292 982 l5 47 -56 -2 c-30 -1 -56 -3 -57 -3z m-846 -2714 c254
-205 449 -292 729 -326 30 -4 63 -7 73 -6 22 1 22 -17 -2 -109 -51 -200 -186
-393 -348 -500 -113 -74 -174 -92 -328 -95 -72 -2 -146 1 -165 6 -19 5 -50 12
-68 15 -74 12 -310 121 -320 146 -2 5 -9 9 -16 9 -16 0 -84 67 -111 111 -81
127 -91 331 -29 546 24 85 94 235 137 298 11 16 49 65 85 107 l63 78 99 -99
c54 -54 144 -135 201 -181z"/>
</g>
</svg>
